# xmcd
#
# Track frame offsets:
#	150
#	12583
#	26699
#	37499
#	54008
#	68670
#	80127
#	93451
#	105488
#	116374
#	128151
#	141611
#	159486
#	169502
#	182819
#	193905
#	201835
#	211293
#	225188
#	237858
#	249672
#
# Disc length: 3458 seconds
# Revision: 0
# Processed by: cddbd v1.5.2PL0 Copyright (c) Steve Scherf et al.
# Submitted via: dBpowerAMP V12.0
#
DISCID=260d8015
DTITLE=Noel Poley Everett - The Collection
DYEAR=2016
DGENRE=Country
TTITLE0=Along The Barrington
TTITLE1=Today I Started Loving You Again
TTITLE2=Wishful Thinking
TTITLE3=For The Good Times
TTITLE4=The Big Rock
TTITLE5=Your My Best Friend
TTITLE6=Sweet Donna
TTITLE7=Have I Told You Lately
TTITLE8=Christmas is For The Kids
TTITLE9=Help Me Make It Through The Night
TTITLE10=Birds On Lady Jane
TTITLE11=Old Joe Blake
TTITLE12=Someone Special
TTITLE13=The Greatest Land Of All
TTITLE14=Point of No Return
TTITLE15=OO - EE
TTITLE16=Julie Julie Julie
TTITLE17=Leave The Bush to The Bushmen
TTITLE18=Harmony in The Home
TTITLE19=Cushions in Your Heart
TTITLE20=High Inflation
EXTD=
EXTT0=
EXTT1=
EXTT2=
EXTT3=
EXTT4=
EXTT5=
EXTT6=
EXTT7=
EXTT8=
EXTT9=
EXTT10=
EXTT11=
EXTT12=
EXTT13=
EXTT14=
EXTT15=
EXTT16=
EXTT17=
EXTT18=
EXTT19=
EXTT20=
PLAYORDER=
